<?xml version="1.0" encoding="utf-8" standalone="no"?>
<!DOCTYPE svg PUBLIC "-//W3C//DTD SVG 1.1//EN"
  "http://www.w3.org/Graphics/SVG/1.1/DTD/svg11.dtd">
<!-- Created with matplotlib (https://matplotlib.org/) -->
<svg height="576pt" version="1.1" viewBox="0 0 576 576" width="576pt" xmlns="http://www.w3.org/2000/svg" xmlns:xlink="http://www.w3.org/1999/xlink">
 <defs>
  <style type="text/css">
*{stroke-linecap:butt;stroke-linejoin:round;}
  </style>
 </defs>
 <g id="figure_1">
  <g id="patch_1">
   <path d="M 0 576 
L 576 576 
L 576 0 
L 0 0 
z
" style="fill:#ffffff;"/>
  </g>
  <g id="axes_1">
   <g id="PathCollection_1">
    <defs>
     <path d="M 0 3 
C 0.795609 3 1.55874 2.683901 2.12132 2.12132 
C 2.683901 1.55874 3 0.795609 3 0 
C 3 -0.795609 2.683901 -1.55874 2.12132 -2.12132 
C 1.55874 -2.683901 0.795609 -3 0 -3 
C -0.795609 -3 -1.55874 -2.683901 -2.12132 -2.12132 
C -2.683901 -1.55874 -3 -0.795609 -3 0 
C -3 0.795609 -2.683901 1.55874 -2.12132 2.12132 
C -1.55874 2.683901 -0.795609 3 0 3 
z
" id="m35a6d42e0f" style="stroke:#ff0000;stroke-opacity:0.5;"/>
    </defs>
    <g clip-path="url(#p1632ca0d40)">
     <use style="fill:#ff0000;fill-opacity:0.5;stroke:#ff0000;stroke-opacity:0.5;" x="92.290909" xlink:href="#m35a6d42e0f" y="484.232727"/>
    </g>
   </g>
   <g id="PathCollection_2">
    <g clip-path="url(#p1632ca0d40)">
     <use style="fill:#ff0000;fill-opacity:0.5;stroke:#ff0000;stroke-opacity:0.5;" x="498.109091" xlink:href="#m35a6d42e0f" y="484.232727"/>
    </g>
   </g>
   <g id="PathCollection_3">
    <g clip-path="url(#p1632ca0d40)">
     <use style="fill:#ff0000;fill-opacity:0.5;stroke:#ff0000;stroke-opacity:0.5;" x="92.290909" xlink:href="#m35a6d42e0f" y="220.669091"/>
    </g>
   </g>
   <g id="PathCollection_4">
    <g clip-path="url(#p1632ca0d40)">
     <use style="fill:#ff0000;fill-opacity:0.5;stroke:#ff0000;stroke-opacity:0.5;" x="498.109091" xlink:href="#m35a6d42e0f" y="88.887273"/>
    </g>
   </g>
   <g id="PathCollection_5">
    <defs>
     <path d="M 0 5 
C 1.326016 5 2.597899 4.473168 3.535534 3.535534 
C 4.473168 2.597899 5 1.326016 5 0 
C 5 -1.326016 4.473168 -2.597899 3.535534 -3.535534 
C 2.597899 -4.473168 1.326016 -5 0 -5 
C -1.326016 -5 -2.597899 -4.473168 -3.535534 -3.535534 
C -4.473168 -2.597899 -5 -1.326016 -5 0 
C -5 1.326016 -4.473168 2.597899 -3.535534 3.535534 
C -2.597899 4.473168 -1.326016 5 0 5 
z
" id="ma69d95b9a3" style="stroke:#008000;stroke-opacity:0.5;"/>
    </defs>
    <g clip-path="url(#p1632ca0d40)">
     <use style="fill:#008000;fill-opacity:0.5;stroke:#008000;stroke-opacity:0.5;" x="254.618182" xlink:href="#ma69d95b9a3" y="326.094545"/>
    </g>
   </g>
   <g id="line2d_1">
    <path clip-path="url(#p1632ca0d40)" d="M 92.290909 484.232727 
L 498.109091 484.232727 
" style="fill:none;stroke:#0000ff;stroke-linecap:square;"/>
   </g>
   <g id="line2d_2">
    <path clip-path="url(#p1632ca0d40)" d="M 92.290909 484.232727 
L 498.109091 88.887273 
" style="fill:none;stroke:#0000ff;stroke-linecap:square;"/>
   </g>
   <g id="line2d_3">
    <path clip-path="url(#p1632ca0d40)" d="M 92.290909 484.232727 
L 92.290909 220.669091 
" style="fill:none;stroke:#0000ff;stroke-linecap:square;"/>
   </g>
   <g id="line2d_4">
    <path clip-path="url(#p1632ca0d40)" d="M 498.109091 484.232727 
L 92.290909 220.669091 
" style="fill:none;stroke:#0000ff;stroke-linecap:square;"/>
   </g>
   <g id="line2d_5">
    <path clip-path="url(#p1632ca0d40)" d="M 498.109091 484.232727 
L 498.109091 88.887273 
" style="fill:none;stroke:#0000ff;stroke-linecap:square;"/>
   </g>
   <g id="line2d_6">
    <path clip-path="url(#p1632ca0d40)" d="M 92.290909 220.669091 
L 498.109091 88.887273 
" style="fill:none;stroke:#0000ff;stroke-linecap:square;"/>
   </g>
   <g id="text_1">
    <!-- $\left(\frac{a}{b},0\right)$ -->
    <defs>
     <path d="M 38.203125 -13.40625 
L 38.203125 -16.40625 
Q 27 -5.796875 20.453125 9.84375 
Q 13.90625 25.5 13.90625 45.09375 
Q 13.90625 64.40625 20.453125 80.25 
Q 27 96.09375 38.203125 106.59375 
L 38.203125 103.59375 
Q 22 83.796875 22 45.09375 
Q 22 6.40625 38.203125 -13.40625 
z
" id="STIXSizeOneSym-Regular-40"/>
     <path d="M 53.71875 31.203125 
L 47.609375 0 
L 38.625 0 
L 40.28125 8.296875 
Q 36.328125 3.421875 31.265625 1 
Q 26.21875 -1.421875 20.015625 -1.421875 
Q 13.03125 -1.421875 8.5625 2.84375 
Q 4.109375 7.125 4.109375 13.8125 
Q 4.109375 23.390625 11.75 28.953125 
Q 19.390625 34.515625 32.8125 34.515625 
L 45.3125 34.515625 
L 45.796875 36.921875 
Q 45.90625 37.3125 45.953125 37.765625 
Q 46 38.234375 46 39.203125 
Q 46 43.5625 42.453125 45.96875 
Q 38.921875 48.390625 32.515625 48.390625 
Q 28.125 48.390625 23.5 47.265625 
Q 18.890625 46.140625 14.015625 43.890625 
L 15.578125 52.203125 
Q 20.65625 54.109375 25.515625 55.046875 
Q 30.375 56 34.90625 56 
Q 44.578125 56 49.625 51.796875 
Q 54.6875 47.609375 54.6875 39.59375 
Q 54.6875 37.984375 54.4375 35.8125 
Q 54.203125 33.640625 53.71875 31.203125 
z
M 44 27.484375 
L 35.015625 27.484375 
Q 23.96875 27.484375 18.671875 24.53125 
Q 13.375 21.578125 13.375 15.375 
Q 13.375 11.078125 16.078125 8.640625 
Q 18.796875 6.203125 23.578125 6.203125 
Q 30.90625 6.203125 36.375 11.453125 
Q 41.84375 16.703125 43.609375 25.484375 
z
" id="DejaVuSans-Oblique-97"/>
     <path d="M 49.515625 33.40625 
Q 49.515625 40.484375 46.265625 44.484375 
Q 43.015625 48.484375 37.3125 48.484375 
Q 33.15625 48.484375 29.515625 46.453125 
Q 25.875 44.4375 23.1875 40.578125 
Q 20.359375 36.53125 18.71875 31.171875 
Q 17.09375 25.828125 17.09375 20.515625 
Q 17.09375 13.765625 20.28125 9.9375 
Q 23.484375 6.109375 29.109375 6.109375 
Q 33.34375 6.109375 36.953125 8.078125 
Q 40.578125 10.0625 43.3125 13.921875 
Q 46.09375 17.921875 47.796875 23.234375 
Q 49.515625 28.5625 49.515625 33.40625 
z
M 21.578125 46.390625 
Q 24.90625 50.875 29.90625 53.4375 
Q 34.90625 56 40.375 56 
Q 48.78125 56 53.734375 50.328125 
Q 58.6875 44.671875 58.6875 35.015625 
Q 58.6875 27.09375 55.78125 19.671875 
Q 52.875 12.25 47.515625 6.5 
Q 44 2.6875 39.40625 0.625 
Q 34.8125 -1.421875 29.78125 -1.421875 
Q 24.46875 -1.421875 20.5625 1.015625 
Q 16.65625 3.46875 14.203125 8.296875 
L 12.59375 0 
L 3.609375 0 
L 18.40625 75.984375 
L 27.390625 75.984375 
z
" id="DejaVuSans-Oblique-98"/>
     <path d="M 11.71875 12.40625 
L 22.015625 12.40625 
L 22.015625 4 
L 14.015625 -11.625 
L 7.71875 -11.625 
L 11.71875 4 
z
" id="DejaVuSans-44"/>
     <path d="M 31.78125 66.40625 
Q 24.171875 66.40625 20.328125 58.90625 
Q 16.5 51.421875 16.5 36.375 
Q 16.5 21.390625 20.328125 13.890625 
Q 24.171875 6.390625 31.78125 6.390625 
Q 39.453125 6.390625 43.28125 13.890625 
Q 47.125 21.390625 47.125 36.375 
Q 47.125 51.421875 43.28125 58.90625 
Q 39.453125 66.40625 31.78125 66.40625 
z
M 31.78125 74.21875 
Q 44.046875 74.21875 50.515625 64.515625 
Q 56.984375 54.828125 56.984375 36.375 
Q 56.984375 17.96875 50.515625 8.265625 
Q 44.046875 -1.421875 31.78125 -1.421875 
Q 19.53125 -1.421875 13.0625 8.265625 
Q 6.59375 17.96875 6.59375 36.375 
Q 6.59375 54.828125 13.0625 64.515625 
Q 19.53125 74.21875 31.78125 74.21875 
z
" id="DejaVuSans-48"/>
     <path d="M 8.59375 103.59375 
L 8.59375 106.59375 
Q 19.796875 96 26.34375 80.34375 
Q 32.90625 64.703125 32.90625 45.09375 
Q 32.90625 25.796875 26.34375 9.9375 
Q 19.796875 -5.90625 8.59375 -16.40625 
L 8.59375 -13.40625 
Q 24.796875 6.40625 24.796875 45.09375 
Q 24.796875 83.796875 8.59375 103.59375 
z
" id="STIXSizeOneSym-Regular-41"/>
    </defs>
    <g transform="translate(65.490909 520.060364)scale(0.2 -0.2)">
     <use transform="translate(0 -24.895312)scale(1.02138)" xlink:href="#STIXSizeOneSym-Regular-40"/>
     <use transform="translate(48.794495 44.8)scale(0.7)" xlink:href="#DejaVuSans-Oblique-97"/>
     <use transform="translate(47.794495 -40.634375)scale(0.7)" xlink:href="#DejaVuSans-Oblique-98"/>
     <use transform="translate(104.728088 0.007812)" xlink:href="#DejaVuSans-44"/>
     <use transform="translate(155.99762 0.007812)" xlink:href="#DejaVuSans-48"/>
     <use transform="translate(219.620667 -24.895312)scale(1.02138)" xlink:href="#STIXSizeOneSym-Regular-41"/>
     <path d="M 47.794495 18.804688 
L 47.794495 25.054688 
L 92.228088 25.054688 
L 92.228088 18.804688 
L 47.794495 18.804688 
z
"/>
    </g>
   </g>
   <g id="text_2">
    <!-- $\left(\frac{c}{d},0\right)$ -->
    <defs>
     <path d="M 53.609375 52.59375 
L 51.8125 43.703125 
Q 48.578125 46.046875 44.9375 47.21875 
Q 41.3125 48.390625 37.40625 48.390625 
Q 33.109375 48.390625 29.21875 46.875 
Q 25.34375 45.359375 22.703125 42.578125 
Q 18.5 38.328125 16.203125 32.609375 
Q 13.921875 26.90625 13.921875 20.796875 
Q 13.921875 13.421875 17.609375 9.8125 
Q 21.296875 6.203125 28.8125 6.203125 
Q 32.515625 6.203125 36.6875 7.328125 
Q 40.875 8.453125 45.40625 10.6875 
L 43.703125 1.8125 
Q 39.796875 0.203125 35.671875 -0.609375 
Q 31.546875 -1.421875 27.203125 -1.421875 
Q 16.3125 -1.421875 10.453125 4.015625 
Q 4.59375 9.46875 4.59375 19.578125 
Q 4.59375 28.078125 7.640625 35.234375 
Q 10.6875 42.390625 16.703125 48.09375 
Q 20.796875 52 26.3125 54 
Q 31.84375 56 38.375 56 
Q 42.1875 56 45.9375 55.140625 
Q 49.703125 54.296875 53.609375 52.59375 
z
" id="DejaVuSans-Oblique-99"/>
     <path d="M 41.796875 8.203125 
Q 38.1875 3.46875 33.25 1.015625 
Q 28.328125 -1.421875 22.3125 -1.421875 
Q 14.109375 -1.421875 9.34375 4.171875 
Q 4.59375 9.765625 4.59375 19.484375 
Q 4.59375 27.59375 7.46875 34.9375 
Q 10.359375 42.28125 15.828125 48.09375 
Q 19.4375 51.953125 23.96875 53.96875 
Q 28.515625 56 33.5 56 
Q 38.765625 56 42.796875 53.453125 
Q 46.828125 50.921875 49.03125 46.1875 
L 54.890625 75.984375 
L 63.921875 75.984375 
L 49.125 0 
L 40.09375 0 
z
M 13.921875 21.09375 
Q 13.921875 14.015625 17.109375 10.0625 
Q 20.3125 6.109375 25.984375 6.109375 
Q 30.171875 6.109375 33.765625 8.125 
Q 37.359375 10.15625 40.09375 14.109375 
Q 42.96875 18.21875 44.625 23.578125 
Q 46.296875 28.953125 46.296875 34.1875 
Q 46.296875 40.96875 43.09375 44.765625 
Q 39.890625 48.578125 34.28125 48.578125 
Q 30.03125 48.578125 26.359375 46.578125 
Q 22.703125 44.578125 20.125 40.828125 
Q 17.28125 36.765625 15.59375 31.390625 
Q 13.921875 26.03125 13.921875 21.09375 
z
" id="DejaVuSans-Oblique-100"/>
    </defs>
    <g transform="translate(471.309091 520.060364)scale(0.2 -0.2)">
     <use transform="translate(0 -24.895312)scale(1.02138)" xlink:href="#STIXSizeOneSym-Regular-40"/>
     <use transform="translate(50.794495 44.8)scale(0.7)" xlink:href="#DejaVuSans-Oblique-99"/>
     <use transform="translate(47.794495 -40.634375)scale(0.7)" xlink:href="#DejaVuSans-Oblique-100"/>
     <use transform="translate(104.728088 0.007812)" xlink:href="#DejaVuSans-44"/>
     <use transform="translate(155.99762 0.007812)" xlink:href="#DejaVuSans-48"/>
     <use transform="translate(219.620667 -24.895312)scale(1.02138)" xlink:href="#STIXSizeOneSym-Regular-41"/>
     <path d="M 47.794495 18.804688 
L 47.794495 25.054688 
L 92.228088 25.054688 
L 92.228088 18.804688 
L 47.794495 18.804688 
z
"/>
    </g>
   </g>
   <g id="text_3">
    <!-- $\left(\frac{a}{b},\frac{1}{b}\right)$ -->
    <defs>
     <path d="M 50.296875 -24.296875 
L 50.296875 -27.90625 
Q 33.5 -12.09375 23.703125 11.40625 
Q 13.90625 34.90625 13.90625 64.296875 
Q 13.90625 93.796875 23.953125 118.640625 
Q 34 143.5 50.296875 156.59375 
L 50.296875 153.296875 
Q 38.90625 141.59375 31.15625 118.84375 
Q 23.40625 96.09375 23.40625 64.296875 
Q 23.40625 8.796875 50.296875 -24.296875 
z
" id="STIXSizeTwoSym-Regular-40"/>
     <path d="M 12.40625 8.296875 
L 28.515625 8.296875 
L 28.515625 63.921875 
L 10.984375 60.40625 
L 10.984375 69.390625 
L 28.421875 72.90625 
L 38.28125 72.90625 
L 38.28125 8.296875 
L 54.390625 8.296875 
L 54.390625 0 
L 12.40625 0 
z
" id="DejaVuSans-49"/>
     <path d="M 11.40625 153 
L 11.40625 156.59375 
Q 28.203125 140.796875 38 117.296875 
Q 47.796875 93.796875 47.796875 64.296875 
Q 47.796875 34.90625 37.75 10.046875 
Q 27.703125 -14.796875 11.40625 -27.90625 
L 11.40625 -24.59375 
Q 22.796875 -12.90625 30.546875 9.890625 
Q 38.296875 32.703125 38.296875 64.296875 
Q 38.296875 119.90625 11.40625 153 
z
" id="STIXSizeTwoSym-Regular-41"/>
    </defs>
    <g transform="translate(66.890909 194.341455)scale(0.2 -0.2)">
     <use transform="translate(0 -20.890625)scale(0.739668)" xlink:href="#STIXSizeTwoSym-Regular-40"/>
     <use transform="translate(44.585999 44.898437)scale(0.7)" xlink:href="#DejaVuSans-Oblique-97"/>
     <use transform="translate(43.585999 -40.535937)scale(0.7)" xlink:href="#DejaVuSans-Oblique-98"/>
     <use transform="translate(100.519592 0.10625)" xlink:href="#DejaVuSans-44"/>
     <use transform="translate(151.789124 43.903125)scale(0.7)" xlink:href="#DejaVuSans-49"/>
     <use transform="translate(151.789124 -40.535938)scale(0.7)" xlink:href="#DejaVuSans-Oblique-98"/>
     <use transform="translate(208.825256 -20.890625)scale(0.739668)" xlink:href="#STIXSizeTwoSym-Regular-41"/>
     <path d="M 43.585999 18.903125 
L 43.585999 25.153125 
L 88.019592 25.153125 
L 88.019592 18.903125 
L 43.585999 18.903125 
z
"/>
     <path d="M 151.789124 18.903125 
L 151.789124 25.153125 
L 196.325256 25.153125 
L 196.325256 18.903125 
L 151.789124 18.903125 
z
"/>
    </g>
   </g>
   <g id="text_4">
    <!-- $\left(\frac{c}{d},\frac{1}{d}\right)$ -->
    <g transform="translate(472.709091 62.559636)scale(0.2 -0.2)">
     <use transform="translate(0 -20.890625)scale(0.739668)" xlink:href="#STIXSizeTwoSym-Regular-40"/>
     <use transform="translate(46.585999 44.898437)scale(0.7)" xlink:href="#DejaVuSans-Oblique-99"/>
     <use transform="translate(43.585999 -40.535937)scale(0.7)" xlink:href="#DejaVuSans-Oblique-100"/>
     <use transform="translate(100.519592 0.10625)" xlink:href="#DejaVuSans-44"/>
     <use transform="translate(151.789124 43.903125)scale(0.7)" xlink:href="#DejaVuSans-49"/>
     <use transform="translate(151.789124 -40.535938)scale(0.7)" xlink:href="#DejaVuSans-Oblique-100"/>
     <use transform="translate(208.825256 -20.890625)scale(0.739668)" xlink:href="#STIXSizeTwoSym-Regular-41"/>
     <path d="M 43.585999 18.903125 
L 43.585999 25.153125 
L 88.019592 25.153125 
L 88.019592 18.903125 
L 43.585999 18.903125 
z
"/>
     <path d="M 151.789124 18.903125 
L 151.789124 25.153125 
L 196.325256 25.153125 
L 196.325256 18.903125 
L 151.789124 18.903125 
z
"/>
    </g>
   </g>
   <g id="text_5">
    <!-- $\left(\frac{a+c}{b+d},\frac{1}{b+d}\right)$ -->
    <defs>
     <path d="M 46 62.703125 
L 46 35.5 
L 73.1875 35.5 
L 73.1875 27.203125 
L 46 27.203125 
L 46 0 
L 37.796875 0 
L 37.796875 27.203125 
L 10.59375 27.203125 
L 10.59375 35.5 
L 37.796875 35.5 
L 37.796875 62.703125 
z
" id="DejaVuSans-43"/>
    </defs>
    <g transform="translate(300.514545 331.394545)scale(0.2 -0.2)">
     <use transform="translate(0 -20.890625)scale(0.739668)" xlink:href="#STIXSizeTwoSym-Regular-40"/>
     <use transform="translate(47.585999 44.898437)scale(0.7)" xlink:href="#DejaVuSans-Oblique-97"/>
     <use transform="translate(104.119202 44.898437)scale(0.7)" xlink:href="#DejaVuSans-43"/>
     <use transform="translate(176.409241 44.898437)scale(0.7)" xlink:href="#DejaVuSans-Oblique-99"/>
     <use transform="translate(43.585999 -40.535938)scale(0.7)" xlink:href="#DejaVuSans-Oblique-98"/>
     <use transform="translate(101.657288 -40.535938)scale(0.7)" xlink:href="#DejaVuSans-43"/>
     <use transform="translate(173.947327 -40.535938)scale(0.7)" xlink:href="#DejaVuSans-Oblique-100"/>
     <use transform="translate(230.88092 0.10625)" xlink:href="#DejaVuSans-44"/>
     <use transform="translate(347.150452 43.903125)scale(0.7)" xlink:href="#DejaVuSans-49"/>
     <use transform="translate(282.150452 -40.535938)scale(0.7)" xlink:href="#DejaVuSans-Oblique-98"/>
     <use transform="translate(340.221741 -40.535938)scale(0.7)" xlink:href="#DejaVuSans-43"/>
     <use transform="translate(412.51178 -40.535938)scale(0.7)" xlink:href="#DejaVuSans-Oblique-100"/>
     <use transform="translate(469.445374 -20.890625)scale(0.739668)" xlink:href="#STIXSizeTwoSym-Regular-41"/>
     <path d="M 43.585999 18.903125 
L 43.585999 25.153125 
L 218.38092 25.153125 
L 218.38092 18.903125 
L 43.585999 18.903125 
z
"/>
     <path d="M 282.150452 18.903125 
L 282.150452 25.153125 
L 456.945374 25.153125 
L 456.945374 18.903125 
L 282.150452 18.903125 
z
"/>
    </g>
   </g>
  </g>
 </g>
 <defs>
  <clipPath id="p1632ca0d40">
   <rect height="434.88" width="446.4" x="72" y="69.12"/>
  </clipPath>
 </defs>
</svg>
